# xmcd
#
# Track frame offsets: 
#        150
#        17896
#        35066
#        55616
#        81881
#        106722
#        119275
#        130161
#        140386
#        163205
#        186430
#        211856
#        234005
#        250275
#        262777
#        276473
#        293418
#        305151
#        329309
#
# Disc length: 4789 seconds
#
# Revision: 0
# Processed by: cddbd v1.5.2PL0 Copyright (c) Steve Scherf et al.
# Submitted via: ExactAudioCopy v1.1
#
DISCID=0d12b313
DTITLE=Various Artist - Het Allerbeste Uit Radio 1 Classics 1000 Van 2019 - C
DTITLE=D 3
DYEAR=2019
DGENRE=Easy Listening
TTITLE0=Radiohead - Creep
TTITLE1=Pixies - Where Is My Mind?
TTITLE2=Simple Minds - Someone Somewhere (In Summertime)
TTITLE3=Patti Smith - Gloria
TTITLE4=Meat Loaf - Paradise By The Dashboard Light
TTITLE5=Motörhead - Ace Of Spades
TTITLE6=Chuck Berry - Roll Over Beethoven
TTITLE7=Blondie - Denis
TTITLE8=Golden Earring - Radar Love
TTITLE9=The Scene - Open
TTITLE10=The Velvet Underground - Pale Blue Eyes
TTITLE11=Editors - Smokers Outside The Hospital Doors
TTITLE12=Thin Lizzy - Whiskey In The Jar
TTITLE13=Rare Earth - Get Ready
TTITLE14=Sparks - This Town Ain't Big Enough For Both Of Us
TTITLE15=Pj Harvey - This Is Love
TTITLE16=Big Star - Thirteen
TTITLE17=Jeff Buckley - Grace
TTITLE18=Elvis Costello and The Attractions - I Want You
EXTD=
EXTT0=
EXTT1=
EXTT2=
EXTT3=
EXTT4=
EXTT5=
EXTT6=
EXTT7=
EXTT8=
EXTT9=
EXTT10=
EXTT11=
EXTT12=
EXTT13=
EXTT14=
EXTT15=
EXTT16=
EXTT17=
EXTT18=
PLAYORDER=
